<mxfile host="app.diagrams.net" modified="2024-02-07T08:00:05.731Z" agent="Mozilla/5.0 (Macintosh; Intel Mac OS X 10_15_7) AppleWebKit/537.36 (KHTML, like Gecko) Chrome/121.0.0.0 Safari/537.36" etag="JYFSPfbybYsG_7PRSB-Y" version="23.1.1" type="device">
  <diagram name="Page-1" id="P8UWvaFxe4GY3D_1x8m-">
    <mxGraphModel dx="954" dy="640" grid="1" gridSize="10" guides="1" tooltips="1" connect="1" arrows="1" fold="1" page="1" pageScale="1" pageWidth="850" pageHeight="1100" math="0" shadow="0">
      <root>
        <mxCell id="0" />
        <mxCell id="1" parent="0" />
        <mxCell id="BoggbwOwnr9q4w8qkgS3-1" value="Start" style="ellipse;whiteSpace=wrap;html=1;" vertex="1" parent="1">
          <mxGeometry x="350" y="200" width="90" height="40" as="geometry" />
        </mxCell>
        <mxCell id="BoggbwOwnr9q4w8qkgS3-2" value="" style="endArrow=classic;html=1;rounded=0;" edge="1" parent="1">
          <mxGeometry width="50" height="50" relative="1" as="geometry">
            <mxPoint x="394.5" y="240" as="sourcePoint" />
            <mxPoint x="394.5" y="320" as="targetPoint" />
            <Array as="points">
              <mxPoint x="394.5" y="240" />
            </Array>
          </mxGeometry>
        </mxCell>
        <mxCell id="BoggbwOwnr9q4w8qkgS3-3" value="I&#39;m female" style="rhombus;whiteSpace=wrap;html=1;" vertex="1" parent="1">
          <mxGeometry x="355" y="320" width="80" height="80" as="geometry" />
        </mxCell>
        <mxCell id="BoggbwOwnr9q4w8qkgS3-4" value="" style="endArrow=classic;html=1;rounded=0;" edge="1" parent="1">
          <mxGeometry width="50" height="50" relative="1" as="geometry">
            <mxPoint x="435" y="360" as="sourcePoint" />
            <mxPoint x="520" y="360" as="targetPoint" />
            <Array as="points">
              <mxPoint x="480" y="360" />
            </Array>
          </mxGeometry>
        </mxCell>
        <mxCell id="BoggbwOwnr9q4w8qkgS3-5" value="" style="endArrow=classic;html=1;rounded=0;" edge="1" parent="1">
          <mxGeometry width="50" height="50" relative="1" as="geometry">
            <mxPoint x="394.5" y="400" as="sourcePoint" />
            <mxPoint x="394.5" y="480" as="targetPoint" />
            <Array as="points">
              <mxPoint x="394.5" y="400" />
            </Array>
          </mxGeometry>
        </mxCell>
        <mxCell id="BoggbwOwnr9q4w8qkgS3-6" value="I enjoy playing football" style="rounded=1;whiteSpace=wrap;html=1;" vertex="1" parent="1">
          <mxGeometry x="520" y="330" width="120" height="60" as="geometry" />
        </mxCell>
        <mxCell id="BoggbwOwnr9q4w8qkgS3-7" value="" style="endArrow=classic;html=1;rounded=0;" edge="1" parent="1">
          <mxGeometry width="50" height="50" relative="1" as="geometry">
            <mxPoint x="394.5" y="540" as="sourcePoint" />
            <mxPoint x="394.5" y="620" as="targetPoint" />
            <Array as="points">
              <mxPoint x="394.5" y="540" />
            </Array>
          </mxGeometry>
        </mxCell>
        <mxCell id="BoggbwOwnr9q4w8qkgS3-8" value="I love singing" style="rounded=1;whiteSpace=wrap;html=1;" vertex="1" parent="1">
          <mxGeometry x="335" y="480" width="120" height="60" as="geometry" />
        </mxCell>
        <mxCell id="BoggbwOwnr9q4w8qkgS3-9" value="" style="endArrow=classic;html=1;rounded=0;" edge="1" parent="1">
          <mxGeometry width="50" height="50" relative="1" as="geometry">
            <mxPoint x="394.5" y="620" as="sourcePoint" />
            <mxPoint x="394.5" y="670" as="targetPoint" />
            <Array as="points">
              <mxPoint x="394.5" y="670" />
            </Array>
          </mxGeometry>
        </mxCell>
        <mxCell id="BoggbwOwnr9q4w8qkgS3-10" value="End" style="ellipse;whiteSpace=wrap;html=1;" vertex="1" parent="1">
          <mxGeometry x="342.5" y="670" width="105" height="50" as="geometry" />
        </mxCell>
        <mxCell id="BoggbwOwnr9q4w8qkgS3-11" value="" style="endArrow=classic;html=1;rounded=0;exitX=0.5;exitY=1;exitDx=0;exitDy=0;entryX=0.5;entryY=0;entryDx=0;entryDy=0;" edge="1" parent="1" source="BoggbwOwnr9q4w8qkgS3-3" target="BoggbwOwnr9q4w8qkgS3-9">
          <mxGeometry width="50" height="50" relative="1" as="geometry">
            <mxPoint x="550" y="500" as="sourcePoint" />
            <mxPoint x="400" y="610" as="targetPoint" />
            <Array as="points">
              <mxPoint x="580" y="620" />
            </Array>
          </mxGeometry>
        </mxCell>
      </root>
    </mxGraphModel>
  </diagram>
</mxfile>
